<?xml version="1.0" standalone="no"?>
<!DOCTYPE svg PUBLIC "-//W3C//DTD SVG 20010904//EN"
 "http://www.w3.org/TR/2001/REC-SVG-20010904/DTD/svg10.dtd">
<svg   
    xmlns="http://www.w3.org/2000/svg"
    viewBox="0 0 1024 1536"
    style="width: 100px; height: 150px;">

<g transform="translate(0.000000,1536.000000) scale(0.100000,-0.100000)" "fill=#000000" stroke="none">
<path d="M4999 12776 c-2 -2 -31 -6 -64 -10 -332 -31 -713 -166 -988 -350
-394 -263 -718 -671 -923 -1163 -21 -48 -65 -171 -98 -272 -51 -153 -66 -188
-89 -205 -27 -20 -42 -21 -275 -24 -136 -1 -257 -4 -270 -7 -12 -3 -31 -20
-42 -38 -20 -32 -20 -68 -20 -3109 l0 -3078 2930 0 2930 0 0 3070 c0 3301 3
3122 -48 3149 -13 7 -108 11 -262 11 -259 0 -294 6 -324 52 -8 12 -36 88 -62
168 -151 471 -354 824 -648 1128 -371 383 -784 590 -1334 666 -99 14 -402 23
-413 12z"/>
<path d="M1850 4055 l0 -285 3295 0 3295 0 0 285 0 285 -3295 0 -3295 0 0
-285z"/>
<path d="M1465 3085 l0 -545 3655 0 3655 0 0 545 0 545 -3655 0 -3655 0 0
-545z"/>
</g>
</svg>
